<?xml version="1.0" encoding="utf-8"?>
<!-- Generator: Adobe Illustrator 24.3.0, SVG Export Plug-In . SVG Version: 6.00 Build 0)  -->
<svg version="1.1" id="Layer_1" xmlns="http://www.w3.org/2000/svg" xmlns:xlink="http://www.w3.org/1999/xlink" x="0px" y="0px"
	 viewBox="0 0 1500 1500" style="enable-background:new 0 0 1500 1500;" xml:space="preserve">
<style type="text/css">
	.st0{fill:#FFFFFF;}
	.st1{fill:#4F46E5;}
</style>
<path class="st0" d="M542.8,1092.6H377.7c-13,0-23.6-10.6-23.6-23.6V689.9c0-13,10.6-23.6,23.6-23.6h165.1c13,0,23.6,10.6,23.6,23.6
	V1069C566.3,1082,555.7,1092.6,542.8,1092.6z M624,1003.5V731.9c0-66.3,18.9-132.9,54.1-189.2c21.5-34.4,69.7-89.5,96.7-118
	c6-6.4,27.8-25.2,27.8-35.5c0-13.2,1.5-34.5,2-74.2c0.3-25.2,20.8-45.9,46-45.7h1.1c44.1,0.8,58.2,41.6,58.2,41.6
	s37.7,74.4,2.5,165.4c-29.7,76.9-35.7,83.1-35.7,83.1s-9.6,13.9,20.8,13.3c0,0,185.6-0.8,192-0.8c13.7,0,57.4,12.5,54.9,68.2
	c-1.8,41.2-27.4,55.6-40.5,60.3c-2.6,0.9-2.9,4.5-0.5,5.9c13.4,7.8,40.8,27.5,40.2,57.7c-0.8,36.6-15.5,50.1-46.1,58.5
	c-2.8,0.8-3.3,4.5-0.8,5.9c11.6,6.6,31.5,22.7,30.3,55.3c-1.2,33.2-25.2,44.9-38.3,48.9c-2.6,0.8-3.1,4.2-0.8,5.8
	c8.3,5.7,20.6,18.6,20,45.1c-0.3,14-5,24.2-10.9,31.5c-9.3,11.5-23.9,17.5-38.7,17.6l-411.8,0.8C646.4,1033.5,624,1033.5,624,1003.5
	L624,1003.5z"/>
<ellipse class="st1" cx="750" cy="750" rx="748.9" ry="750"/>
<path class="st0" d="M750,541.9C716.5,338.7,319.5,323.2,319.5,628c0,270.1,430.5,519.1,430.5,519.1s430.5-252.3,430.5-519.1
	C1180.5,323.2,783.5,338.7,750,541.9z"/>
</svg>
